<svg width="605" height="92" viewBox="0 0 605 92" fill="none" xmlns="http://www.w3.org/2000/svg">
<path d="M0.4 90.28C3.92 79.64 7.28 69.2 10.48 58.96C11.84 54.64 13.24 50.12 14.68 45.4C16.12 40.68 17.56 36 19 31.36C20.44 26.72 21.76 22.24 22.96 17.92C24.24 13.6 25.36 9.59999 26.32 5.91999C30.72 5.91999 34.88 5.67999 38.8 5.2C42.72 4.72 46.96 4.28 51.52 3.88C51.28 5.64 51 7.63999 50.68 9.87999C50.44 12.04 50.12 14.32 49.72 16.72C49.4 19.12 49.04 21.6 48.64 24.16C48.24 26.72 47.76 30 47.2 34C46.64 38 45.88 43 44.92 49H46.48C48.8 42.92 50.72 37.88 52.24 33.88C53.76 29.8 55 26.48 55.96 23.92C56.92 21.36 57.88 18.88 58.84 16.48C59.88 14 60.84 11.68 61.72 9.52C62.68 7.28 63.56 5.32 64.36 3.63999C66.36 3.48 68.24 3.28 70 3.04C71.76 2.79999 73.52 2.55999 75.28 2.32C77.04 2 78.8 1.72 80.56 1.47999C82.4 1.15999 84.4 0.799993 86.56 0.399993C85.76 5.04 85 9.8 84.28 14.68C83.56 19.56 82.92 24.44 82.36 29.32C81.8 34.12 81.24 38.88 80.68 43.6C80.2 48.32 79.76 52.8 79.36 57.04C78.4 66.96 77.56 76.64 76.84 86.08L55.96 89.8C55.96 89.4 56 88.32 56.08 86.56C56.24 84.8 56.4 82.64 56.56 80.08C56.8 77.52 57.08 74.68 57.4 71.56C57.8 68.44 58.16 65.32 58.48 62.2C58.88 59.08 59.28 56.08 59.68 53.2C60.08 50.24 60.48 47.72 60.88 45.64H59.8C58.68 49 57.44 52.56 56.08 56.32C54.72 60 53.32 63.76 51.88 67.6C50.52 71.44 49.16 75.2 47.8 78.88C46.44 82.56 45.24 86.08 44.2 89.44C41.4 89.52 39 89.64 37 89.8C35 89.88 32.68 90 30.04 90.16L33.88 45.64H32.08C31.92 46.68 31.52 48.44 30.88 50.92C30.24 53.32 29.48 56.12 28.6 59.32C27.8 62.44 26.92 65.72 25.96 69.16C25 72.52 24.08 75.68 23.2 78.64C22.4 81.52 21.72 83.92 21.16 85.84C20.6 87.68 20.28 88.72 20.2 88.96L0.4 90.28ZM122.457 88.6C120.457 88.92 118.257 89.28 115.857 89.68C113.457 90.08 111.297 90.44 109.377 90.76C109.697 88.12 110.017 85.52 110.337 82.96C110.577 80.72 110.777 78.48 110.937 76.24C111.177 74 111.377 72.08 111.537 70.48H101.097L96.2969 87.76C94.5369 88 92.4569 88.28 90.0569 88.6C87.6569 88.84 85.4169 89.08 83.3369 89.32C80.7769 89.64 78.2569 89.96 75.7769 90.28C78.9769 79.64 82.1369 69.16 85.2569 58.84C86.5369 54.52 87.8569 50 89.2169 45.28C90.6569 40.56 92.0569 35.88 93.4169 31.24C94.8569 26.52 96.2169 22 97.4969 17.68C98.7769 13.36 99.8969 9.4 100.857 5.8C106.297 5.4 111.817 4.91999 117.417 4.35999C123.097 3.79999 128.617 3.04 133.977 2.07999C133.737 4.63999 133.457 7.84 133.137 11.68C132.897 15.44 132.657 19.56 132.417 24.04C132.177 28.52 131.937 33.2 131.697 38.08C131.457 42.96 131.217 47.76 130.977 52.48C130.577 63.52 130.137 75.24 129.657 87.64C127.257 88.04 124.857 88.36 122.457 88.6ZM103.977 58.48C104.297 58.48 104.857 58.48 105.657 58.48C106.537 58.4 107.417 58.36 108.297 58.36C109.257 58.28 110.137 58.24 110.937 58.24C111.737 58.16 112.297 58.08 112.617 58C112.617 57.52 112.657 56.72 112.737 55.6C112.897 54.4 113.017 53.08 113.097 51.64C113.257 50.12 113.417 48.48 113.577 46.72C113.737 44.96 113.897 43.24 114.057 41.56C114.377 37.48 114.777 33.08 115.257 28.36L115.977 17.92L114.177 18.04L111.417 28.36L103.977 58.48ZM130.691 91.12C132.851 80.48 134.931 70.08 136.931 59.92C137.651 55.6 138.451 51.12 139.331 46.48C140.211 41.76 141.011 37.12 141.731 32.56C142.531 27.92 143.251 23.48 143.891 19.24C144.611 14.92 145.171 11 145.571 7.48C150.131 6.03999 155.051 4.99999 160.331 4.35999C165.611 3.64 170.851 3.28 176.051 3.28C179.171 3.28 181.731 3.64 183.731 4.35999C185.811 5.07999 187.411 6.11999 188.531 7.48C189.731 8.76 190.571 10.28 191.051 12.04C191.531 13.8 191.771 15.76 191.771 17.92C191.771 21.12 191.211 24.28 190.091 27.4C188.971 30.44 187.451 33.36 185.531 36.16C183.691 38.88 181.531 41.4 179.051 43.72C176.651 45.96 174.051 47.8 171.251 49.24C172.691 52.44 174.211 55.96 175.811 59.8C177.491 63.56 179.051 67.16 180.491 70.6C182.091 74.6 183.731 78.6 185.411 82.6L166.811 89.08C165.211 83.96 163.771 79.16 162.491 74.68C161.931 72.84 161.371 70.96 160.811 69.04C160.251 67.04 159.731 65.16 159.251 63.4C158.771 61.64 158.371 60.08 158.051 58.72C157.731 57.28 157.531 56.12 157.451 55.24L155.891 55.72C155.411 58.28 154.811 61.28 154.091 64.72C153.451 68.16 152.851 71.48 152.291 74.68C151.571 78.44 150.851 82.24 150.131 86.08L130.691 91.12ZM158.891 39.04C160.411 38.88 162.251 38.24 164.411 37.12C166.651 36 168.771 34.68 170.771 33.16C172.771 31.56 174.491 29.92 175.931 28.24C177.371 26.56 178.091 25.08 178.091 23.8C178.091 22.92 177.811 22.24 177.251 21.76C176.691 21.2 175.891 20.8 174.851 20.56C173.891 20.24 172.811 20.04 171.611 19.96C170.411 19.88 169.171 19.84 167.891 19.84C167.011 19.84 166.091 19.88 165.131 19.96C164.251 19.96 163.451 19.96 162.731 19.96L158.891 39.04ZM184.371 91.12C186.771 79.92 189.011 69.04 191.091 58.48C191.891 53.92 192.731 49.2 193.611 44.32C194.491 39.44 195.291 34.6 196.011 29.8C196.811 25 197.491 20.36 198.051 15.88C198.691 11.32 199.171 7.2 199.491 3.52C201.331 3.67999 203.411 3.83999 205.731 4C208.051 4.08 210.211 4.19999 212.211 4.35999C214.611 4.52 217.011 4.6 219.411 4.6C219.331 4.92 219.211 5.52 219.051 6.39999C218.891 7.28 218.691 8.36 218.451 9.64C218.211 10.84 217.931 12.2 217.611 13.72C217.371 15.24 217.091 16.76 216.771 18.28C216.131 21.8 215.411 25.76 214.611 30.16L215.331 30.04C216.131 28.76 217.251 27 218.691 24.76C220.211 22.44 221.771 20 223.371 17.44C224.971 14.88 226.531 12.44 228.051 10.12C229.571 7.71999 230.851 5.67999 231.891 4C235.891 3.68 239.891 3.32 243.891 2.92C247.891 2.52 251.891 2 255.891 1.36C252.131 6.4 248.491 11.36 244.971 16.24C243.451 18.32 241.891 20.48 240.291 22.72C238.771 24.96 237.251 27.16 235.731 29.32C234.211 31.48 232.771 33.56 231.411 35.56C230.131 37.56 228.971 39.4 227.931 41.08C229.691 49.16 231.771 56.96 234.171 64.48C236.571 72 239.011 79.68 241.491 87.52C239.651 87.44 237.771 87.4 235.851 87.4C233.931 87.32 232.051 87.28 230.211 87.28C227.891 87.28 225.651 87.32 223.491 87.4C221.331 87.4 219.091 87.44 216.771 87.52C216.051 82.32 215.251 76.88 214.371 71.2C213.571 65.44 212.811 59.96 212.091 54.76L209.931 57.28C209.371 59.68 208.731 62.64 208.011 66.16C207.371 69.68 206.731 73.08 206.091 76.36C205.371 80.2 204.611 84.16 203.811 88.24L184.371 91.12ZM281.358 88.6C280.638 88.6 279.238 88.72 277.158 88.96C275.078 89.12 272.918 89.36 270.678 89.68C268.438 89.92 266.398 90.16 264.558 90.4C262.798 90.64 261.838 90.8 261.678 90.88C262.638 87.44 263.598 83.64 264.558 79.48C265.518 75.24 266.478 70.84 267.438 66.28C268.478 61.64 269.438 56.96 270.318 52.24C271.278 47.52 272.198 42.96 273.078 38.56C275.078 28.32 277.038 17.8 278.958 6.99999L297.678 4C295.598 14.72 293.518 25.24 291.438 35.56C290.558 39.96 289.638 44.52 288.678 49.24C287.798 53.96 286.918 58.64 286.038 63.28C285.238 67.92 284.398 72.44 283.518 76.84C282.718 81.16 281.998 85.08 281.358 88.6ZM297.222 91.12C299.062 82.32 300.822 73.64 302.502 65.08C303.222 61.48 303.942 57.72 304.662 53.8C305.382 49.88 306.062 46.04 306.702 42.28C307.422 38.44 308.022 34.76 308.502 31.24C309.062 27.64 309.542 24.36 309.942 21.4C308.102 21.16 306.222 21.08 304.302 21.16C302.462 21.24 300.622 21 298.782 20.44C298.862 19.16 298.902 17.68 298.902 16C298.902 14.32 298.942 12.64 299.022 10.96C299.102 9.11999 299.182 7.15999 299.262 5.08C301.342 5.24 303.422 5.35999 305.502 5.43999C307.582 5.52 309.662 5.56 311.742 5.56C315.822 5.56 319.742 5.48 323.502 5.31999C327.342 5.08 330.862 4.84 334.062 4.6C337.342 4.28 340.542 3.92 343.662 3.52L342.342 10C341.942 11.84 341.542 13.72 341.142 15.64C340.822 17.56 340.502 19.2 340.182 20.56C338.422 21.04 336.622 21.4 334.782 21.64C333.022 21.8 331.262 22.04 329.502 22.36C328.942 25.08 328.342 28.12 327.702 31.48C327.062 34.76 326.422 38.2 325.782 41.8C325.222 45.32 324.662 48.92 324.102 52.6C323.542 56.28 322.982 59.8 322.422 63.16C321.142 71.08 319.942 79.28 318.822 87.76L297.222 91.12ZM414.416 29.68C414.416 33.84 413.816 38.28 412.616 43C411.416 47.64 409.736 52.28 407.576 56.92C405.416 61.48 402.736 65.88 399.536 70.12C396.416 74.28 392.856 77.96 388.856 81.16C384.856 84.28 380.456 86.8 375.656 88.72C370.936 90.64 365.896 91.6 360.536 91.6C359.416 91.6 358.296 91.52 357.176 91.36C356.056 91.28 354.936 91.16 353.816 91C355.976 79.96 358.096 69.2 360.176 58.72C360.976 54.32 361.816 49.76 362.696 45.04C363.576 40.24 364.416 35.52 365.216 30.88C366.016 26.24 366.776 21.8 367.496 17.56C368.296 13.32 368.936 9.48 369.416 6.04C372.856 5.4 376.336 4.8 379.856 4.23999C383.376 3.68 386.976 3.4 390.656 3.4C394.976 3.4 398.616 4.08 401.576 5.43999C404.616 6.79999 407.056 8.68 408.896 11.08C410.816 13.48 412.216 16.28 413.096 19.48C413.976 22.68 414.416 26.08 414.416 29.68ZM386.096 20.32C385.216 25.04 384.296 29.56 383.336 33.88C382.376 38.2 381.416 42.56 380.456 46.96C379.496 51.36 378.536 55.96 377.576 60.76C376.616 65.56 375.696 70.8 374.816 76.48C376.736 75.2 378.576 73.48 380.336 71.32C382.176 69.08 383.896 66.52 385.496 63.64C387.096 60.76 388.536 57.72 389.816 54.52C391.176 51.32 392.336 48.2 393.296 45.16C394.256 42.12 394.976 39.28 395.456 36.64C396.016 34 396.296 31.72 396.296 29.8C396.296 26.84 395.456 24.52 393.776 22.84C392.176 21.16 389.616 20.32 386.096 20.32ZM473.505 26.08C473.505 32.64 472.785 38.84 471.345 44.68C469.985 50.44 468.145 55.76 465.825 60.64C463.505 65.44 460.785 69.76 457.665 73.6C454.625 77.36 451.425 80.6 448.065 83.32C444.705 85.96 441.305 88 437.865 89.44C434.425 90.8 431.145 91.48 428.025 91.48C425.385 91.48 422.985 91 420.825 90.04C418.665 89 416.785 87.52 415.185 85.6C413.585 83.6 412.305 81.08 411.345 78.04C410.465 74.92 410.025 71.2 410.025 66.88C410.025 62.4 410.585 57.68 411.705 52.72C412.825 47.76 414.345 42.84 416.265 37.96C418.185 33.08 420.545 28.44 423.345 24.04C426.145 19.64 429.225 15.76 432.585 12.4C435.945 8.96 439.545 6.24 443.385 4.23999C447.225 2.24 451.225 1.24 455.385 1.24C458.985 1.24 461.945 2 464.265 3.52C466.665 4.96 468.505 6.88 469.785 9.27999C471.145 11.6 472.105 14.24 472.665 17.2C473.225 20.16 473.505 23.12 473.505 26.08ZM427.905 63.76C427.905 64.64 428.065 65.56 428.385 66.52C428.705 67.48 429.145 68.32 429.705 69.04C430.265 69.76 430.945 70.4 431.745 70.96C432.625 71.44 433.545 71.68 434.505 71.68C438.105 71.68 441.305 70.44 444.105 67.96C446.905 65.48 449.225 62.44 451.065 58.84C452.905 55.24 454.305 51.4 455.265 47.32C456.305 43.24 456.825 39.52 456.825 36.16C456.825 35.2 456.745 34.16 456.585 33.04C456.505 31.92 456.265 30.88 455.865 29.92C455.545 28.96 454.985 28.16 454.185 27.52C453.465 26.8 452.465 26.44 451.185 26.44C448.625 26.44 446.265 27.08 444.105 28.36C441.945 29.64 439.985 31.36 438.225 33.52C436.545 35.6 435.065 38 433.785 40.72C432.505 43.36 431.385 46.08 430.425 48.88C429.545 51.6 428.905 54.28 428.505 56.92C428.105 59.56 427.905 61.84 427.905 63.76ZM470.404 91.48L479.524 6.28C483.284 6.12 486.804 5.76 490.084 5.2C493.444 4.55999 496.764 4.12 500.044 3.88C500.044 3.96 499.924 4.8 499.684 6.39999C499.444 7.91999 499.124 9.95999 498.724 12.52C498.324 15 497.884 17.84 497.404 21.04C496.924 24.16 496.204 28.48 495.244 34C494.364 39.52 493.164 47.16 491.644 56.92H493.444C495.524 49.56 497.244 43.56 498.604 38.92C499.964 34.2 501.044 30.4 501.844 27.52C502.724 24.56 503.524 21.72 504.244 19C505.044 16.28 505.764 13.76 506.404 11.44C507.124 9.12 507.684 7.16 508.084 5.56H509.164C510.604 5.56 512.044 5.48 513.484 5.31999C515.004 5.16 516.404 5 517.684 4.83999C519.044 4.6 520.444 4.32 521.884 4C521.724 4.72 521.524 6.2 521.284 8.44C521.124 10.68 520.884 13.4 520.564 16.6C520.244 19.72 519.924 23.2 519.604 27.04C519.284 30.8 518.964 34.52 518.644 38.2C518.324 41.8 518.004 45.24 517.684 48.52C517.444 51.8 517.204 54.6 516.964 56.92H519.124L530.524 5.31999C533.244 4.91999 535.924 4.55999 538.564 4.23999C540.884 3.91999 543.284 3.6 545.764 3.28C548.244 2.96 550.444 2.6 552.364 2.2C551.164 5.56 549.964 9.32 548.764 13.48C547.564 17.56 546.324 21.88 545.044 26.44C543.764 31 542.524 35.6 541.324 40.24C540.204 44.88 539.084 49.36 537.964 53.68C535.404 63.92 532.924 74.44 530.524 85.24L503.404 89.8L508.684 43.48H507.244L495.364 87.04L470.404 91.48ZM538.155 91.6C540.555 80.08 542.835 68.92 544.995 58.12C545.795 53.48 546.635 48.68 547.515 43.72C548.475 38.76 549.355 33.88 550.155 29.08C550.955 24.2 551.675 19.56 552.315 15.16C552.955 10.68 553.435 6.64 553.755 3.04C554.795 3.11999 555.675 3.15999 556.395 3.15999C557.115 3.15999 557.955 3.15999 558.915 3.15999C560.035 3.15999 561.395 3.15999 562.995 3.15999C564.595 3.07999 566.195 3 567.795 2.92C569.395 2.84 571.115 2.76 572.955 2.67999C574.075 8.28 575.075 13.68 575.955 18.88C576.835 23.44 577.715 28.12 578.595 32.92C579.555 37.72 580.395 41.8 581.115 45.16C581.435 43.56 581.795 41.72 582.195 39.64C582.595 37.48 583.035 35.24 583.515 32.92C583.995 30.6 584.435 28.28 584.835 25.96C585.315 23.56 585.795 21.2 586.275 18.88C587.395 13.68 588.555 8.32 589.755 2.8L604.395 0.999993C601.675 13.24 599.275 24.84 597.195 35.8C596.235 40.52 595.275 45.32 594.315 50.2C593.435 55 592.595 59.64 591.795 64.12C590.995 68.52 590.315 72.64 589.755 76.48C589.195 80.24 588.755 83.4 588.435 85.96C588.195 85.96 587.235 86.16 585.555 86.56C583.955 86.88 582.075 87.28 579.915 87.76C577.835 88.24 575.715 88.72 573.555 89.2C571.475 89.68 569.915 90.12 568.875 90.52C568.395 84.12 567.875 78.04 567.315 72.28C567.075 69.8 566.795 67.28 566.475 64.72C566.235 62.08 565.955 59.56 565.635 57.16C565.315 54.76 564.995 52.52 564.675 50.44C564.355 48.36 564.035 46.56 563.715 45.04C563.475 46.56 563.155 48.32 562.755 50.32C562.355 52.32 561.955 54.44 561.555 56.68C561.155 58.92 560.755 61.28 560.355 63.76C559.955 66.16 559.515 68.48 559.035 70.72C557.995 76.08 556.875 81.68 555.675 87.52L538.155 91.6Z" fill="url(#paint0_linear)"/>
<defs>
<linearGradient id="paint0_linear" x1="-111.607" y1="-15" x2="702.624" y2="-15" gradientUnits="userSpaceOnUse">
<stop offset="0.160685" stop-color="#58B492" stop-opacity="0.95"/>
<stop offset="0.376185" stop-color="#205DA5"/>
<stop offset="0.606829" stop-color="#8C54C5"/>
<stop offset="0.848958" stop-color="#B61620"/>
<stop offset="0.9999" stop-color="#DADA52"/>
<stop offset="0.9999" stop-color="#E0E04D"/>
<stop offset="1" stop-color="#D5AD20"/>
</linearGradient>
</defs>
</svg>
